# xmcd
#
# Track frame offsets:
#	150
#	27110
#	48187
#	67694
#	88740
#	108846
#	122265
#	140814
#	163000
#	183014
#	205117
#	236092
#	263039
#	282762
#	303778
#	323662
#	342607
#
# Disc length: 4770 seconds
#
# Revision: 0
# Processed by: cddbd v1.5.2PL0 Copyright (c) Steve Scherf et al.
# Submitted via: audiograbber 1.83.01
#
DISCID=df12a011
DTITLE=Incognito - The Best (2004-2017)
DYEAR=2017
DGENRE=Trip-Hop
TTITLE0=Until The 12th Of Never (feat. Tony Momrelle)
TTITLE1=Just Say Nothing (feat. Vanessa Haynes)
TTITLE2=Goodbye To Yesterday (feat. Mo Brandis)
TTITLE3=Craziest High (feat. Bluey)
TTITLE4=I Couldn't Love You More (feat. Vanessa Haynes)
TTITLE5=Jam On The Tyne
TTITLE6=Hats (Make We Wanna Holler) (feat. Tony Momrelle)
TTITLE7=Don't Turn My Love Away
TTITLE8=Lowdown (feat. Mario Biondi and Chaka Khan)
TTITLE9=It's Just One Of These Things (feat. Maysa and Tony Momrelle)
TTITLE10=Pyramids On Mars (feat. Rowland Sutherland)
TTITLE11=Step Aside (feat. Joy Rose)
TTITLE12=Love Born In Flames (feat. Imaani and Stuart Zender)
TTITLE13=Village Life (feat. Najee)
TTITLE14=Always There (live)
TTITLE15=Still A Friend Of Mine (live)
TTITLE16=Givin' It Up (live)
EXTD=
EXTT0=
EXTT1=
EXTT2=
EXTT3=
EXTT4=
EXTT5=
EXTT6=
EXTT7=
EXTT8=
EXTT9=
EXTT10=
EXTT11=
EXTT12=
EXTT13=
EXTT14=
EXTT15=
EXTT16=
PLAYORDER=
